<mxfile host="app.diagrams.net" modified="2020-10-30T04:18:20.060Z" agent="5.0 (Macintosh; Intel Mac OS X 10_15_7) AppleWebKit/605.1.15 (KHTML, like Gecko) Version/14.0 Safari/605.1.15" etag="v98IaXBVSx5mYwl5LdTO" version="13.8.7" type="github">
  <diagram name="Page-1" id="5987fedf-629e-85c4-6858-42fee31821dd">
    <mxGraphModel dx="1098" dy="702" grid="1" gridSize="10" guides="1" tooltips="1" connect="1" arrows="1" fold="1" page="1" pageScale="1.5" pageWidth="1169" pageHeight="826" background="#ffffff" math="0" shadow="0">
      <root>
        <mxCell id="0" style=";html=1;" />
        <mxCell id="1" style=";html=1;" parent="0" />
        <mxCell id="2a5a01dd2e413fbf-9" value="E2" style="ellipse;whiteSpace=wrap;html=1;rounded=0;shadow=0;strokeWidth=1;fontSize=24;align=right;opacity=50;fillColor=#ffe6cc;strokeColor=#d79b00;" parent="1" vertex="1">
          <mxGeometry x="460" y="500" width="540" height="330" as="geometry" />
        </mxCell>
        <mxCell id="O2IIM5WadF5bXijUXbSv-32" value="D2" style="ellipse;whiteSpace=wrap;html=1;rounded=0;shadow=0;strokeWidth=1;fillColor=#fff2cc;fontSize=24;align=left;strokeColor=#d6b656;opacity=50;horizontal=1;" parent="1" vertex="1">
          <mxGeometry x="395" y="344.5" width="610" height="390" as="geometry" />
        </mxCell>
        <mxCell id="O2IIM5WadF5bXijUXbSv-30" value="A2" style="ellipse;whiteSpace=wrap;html=1;rounded=0;shadow=0;strokeWidth=1;fillColor=#d5e8d4;fontSize=24;align=left;strokeColor=#82b366;opacity=50;" parent="1" vertex="1">
          <mxGeometry x="440" y="370" width="360" height="280" as="geometry" />
        </mxCell>
        <mxCell id="2a5a01dd2e413fbf-2" value="A1" style="ellipse;whiteSpace=wrap;html=1;rounded=0;shadow=0;strokeWidth=1;fillColor=#d5e8d4;fontSize=24;align=left;strokeColor=#82b366;opacity=50;" parent="1" vertex="1">
          <mxGeometry x="500" y="380" width="260" height="180" as="geometry" />
        </mxCell>
        <mxCell id="O2IIM5WadF5bXijUXbSv-15" style="edgeStyle=orthogonalEdgeStyle;rounded=0;orthogonalLoop=1;jettySize=auto;html=1;entryX=0;entryY=0.5;entryDx=0;entryDy=0;startArrow=classic;startFill=1;curved=1;" parent="1" source="2a5a01dd2e413fbf-11" target="O2IIM5WadF5bXijUXbSv-1" edge="1">
          <mxGeometry relative="1" as="geometry" />
        </mxCell>
        <mxCell id="O2IIM5WadF5bXijUXbSv-16" style="edgeStyle=orthogonalEdgeStyle;rounded=0;orthogonalLoop=1;jettySize=auto;html=1;entryX=0;entryY=0.5;entryDx=0;entryDy=0;startArrow=classic;startFill=1;elbow=vertical;curved=1;exitX=0.25;exitY=1;exitDx=0;exitDy=0;" parent="1" source="2a5a01dd2e413fbf-11" target="O2IIM5WadF5bXijUXbSv-2" edge="1">
          <mxGeometry relative="1" as="geometry" />
        </mxCell>
        <mxCell id="2a5a01dd2e413fbf-11" value="a" style="whiteSpace=wrap;html=1;rounded=0;shadow=0;strokeWidth=1;fontSize=24;align=right;fillColor=#FFFFFF;" parent="1" vertex="1">
          <mxGeometry x="562" y="441" width="38" height="39" as="geometry" />
        </mxCell>
        <mxCell id="2a5a01dd2e413fbf-37" style="edgeStyle=none;curved=1;html=1;endArrow=none;endFill=0;strokeColor=#FF0000;strokeWidth=4;fontSize=24;dashed=1;" parent="1" edge="1">
          <mxGeometry relative="1" as="geometry">
            <Array as="points">
              <mxPoint x="1422" y="649" />
            </Array>
            <mxPoint x="1352" y="592.125" as="targetPoint" />
          </mxGeometry>
        </mxCell>
        <mxCell id="2a5a01dd2e413fbf-40" style="edgeStyle=none;curved=1;html=1;entryX=0.5;entryY=0;endArrow=none;endFill=0;strokeColor=#0066CC;strokeWidth=4;fontSize=24;dashed=1;dashPattern=1 1;" parent="1" edge="1">
          <mxGeometry relative="1" as="geometry">
            <Array as="points">
              <mxPoint x="1282" y="629" />
            </Array>
            <mxPoint x="1332" y="591.5" as="sourcePoint" />
          </mxGeometry>
        </mxCell>
        <mxCell id="2a5a01dd2e413fbf-41" style="edgeStyle=none;curved=1;html=1;endArrow=none;endFill=0;strokeColor=#0066CC;strokeWidth=4;fontSize=24;dashed=1;dashPattern=1 1;" parent="1" edge="1">
          <mxGeometry relative="1" as="geometry">
            <Array as="points">
              <mxPoint x="1382" y="569" />
            </Array>
            <mxPoint x="1417" y="580.6666666666667" as="targetPoint" />
          </mxGeometry>
        </mxCell>
        <mxCell id="2a5a01dd2e413fbf-56" value="F" style="text;html=1;strokeColor=none;fillColor=none;align=center;verticalAlign=middle;whiteSpace=wrap;rounded=0;shadow=0;fontSize=20;" parent="1" vertex="1">
          <mxGeometry x="1522" y="619" width="80" height="30" as="geometry" />
        </mxCell>
        <mxCell id="O2IIM5WadF5bXijUXbSv-18" style="edgeStyle=orthogonalEdgeStyle;curved=1;rounded=0;orthogonalLoop=1;jettySize=auto;html=1;entryX=0.5;entryY=0;entryDx=0;entryDy=0;startArrow=classic;startFill=1;exitX=0.5;exitY=1;exitDx=0;exitDy=0;" parent="1" source="O2IIM5WadF5bXijUXbSv-2" target="O2IIM5WadF5bXijUXbSv-6" edge="1">
          <mxGeometry relative="1" as="geometry" />
        </mxCell>
        <mxCell id="O2IIM5WadF5bXijUXbSv-1" value="c" style="whiteSpace=wrap;html=1;rounded=0;shadow=0;strokeWidth=1;fontSize=24;align=right;fillColor=#FFFFFF;" parent="1" vertex="1">
          <mxGeometry x="680" y="441" width="40" height="39" as="geometry" />
        </mxCell>
        <mxCell id="O2IIM5WadF5bXijUXbSv-17" style="edgeStyle=orthogonalEdgeStyle;curved=1;rounded=0;orthogonalLoop=1;jettySize=auto;html=1;startArrow=classic;startFill=1;" parent="1" source="O2IIM5WadF5bXijUXbSv-2" target="O2IIM5WadF5bXijUXbSv-1" edge="1">
          <mxGeometry relative="1" as="geometry">
            <mxPoint x="810" y="470" as="targetPoint" />
          </mxGeometry>
        </mxCell>
        <mxCell id="O2IIM5WadF5bXijUXbSv-2" value="b" style="whiteSpace=wrap;html=1;rounded=0;shadow=0;strokeWidth=1;fontSize=24;align=right;fillColor=#FFFFFF;" parent="1" vertex="1">
          <mxGeometry x="620" y="519" width="40" height="41" as="geometry" />
        </mxCell>
        <mxCell id="O2IIM5WadF5bXijUXbSv-21" style="edgeStyle=orthogonalEdgeStyle;curved=1;rounded=0;orthogonalLoop=1;jettySize=auto;html=1;entryX=0;entryY=0.5;entryDx=0;entryDy=0;startArrow=classic;startFill=1;" parent="1" source="O2IIM5WadF5bXijUXbSv-6" target="O2IIM5WadF5bXijUXbSv-7" edge="1">
          <mxGeometry relative="1" as="geometry" />
        </mxCell>
        <mxCell id="O2IIM5WadF5bXijUXbSv-6" value="d" style="whiteSpace=wrap;html=1;rounded=0;shadow=0;strokeWidth=1;fontSize=24;align=right;fillColor=#FFFFFF;" parent="1" vertex="1">
          <mxGeometry x="620" y="600" width="40" height="39" as="geometry" />
        </mxCell>
        <mxCell id="O2IIM5WadF5bXijUXbSv-23" style="edgeStyle=orthogonalEdgeStyle;curved=1;rounded=0;orthogonalLoop=1;jettySize=auto;html=1;entryX=0;entryY=0.5;entryDx=0;entryDy=0;startArrow=none;startFill=0;" parent="1" source="O2IIM5WadF5bXijUXbSv-7" target="O2IIM5WadF5bXijUXbSv-8" edge="1">
          <mxGeometry relative="1" as="geometry" />
        </mxCell>
        <mxCell id="O2IIM5WadF5bXijUXbSv-27" style="edgeStyle=orthogonalEdgeStyle;curved=1;rounded=0;orthogonalLoop=1;jettySize=auto;html=1;entryX=0.5;entryY=0;entryDx=0;entryDy=0;startArrow=none;startFill=0;" parent="1" source="O2IIM5WadF5bXijUXbSv-7" target="O2IIM5WadF5bXijUXbSv-13" edge="1">
          <mxGeometry relative="1" as="geometry" />
        </mxCell>
        <mxCell id="O2IIM5WadF5bXijUXbSv-7" value="e" style="whiteSpace=wrap;html=1;rounded=0;shadow=0;strokeWidth=1;fontSize=24;align=right;fillColor=#FFFFFF;" parent="1" vertex="1">
          <mxGeometry x="740" y="601" width="40" height="39" as="geometry" />
        </mxCell>
        <mxCell id="O2IIM5WadF5bXijUXbSv-26" style="edgeStyle=orthogonalEdgeStyle;curved=1;rounded=0;orthogonalLoop=1;jettySize=auto;html=1;entryX=0.5;entryY=0;entryDx=0;entryDy=0;startArrow=none;startFill=0;" parent="1" source="O2IIM5WadF5bXijUXbSv-8" target="O2IIM5WadF5bXijUXbSv-9" edge="1">
          <mxGeometry relative="1" as="geometry" />
        </mxCell>
        <mxCell id="O2IIM5WadF5bXijUXbSv-8" value="h" style="whiteSpace=wrap;html=1;rounded=0;shadow=0;strokeWidth=1;fontSize=24;align=right;fillColor=#FFFFFF;" parent="1" vertex="1">
          <mxGeometry x="900" y="601" width="40" height="39" as="geometry" />
        </mxCell>
        <mxCell id="O2IIM5WadF5bXijUXbSv-9" value="g" style="whiteSpace=wrap;html=1;rounded=0;shadow=0;strokeWidth=1;fontSize=24;align=right;fillColor=#FFFFFF;" parent="1" vertex="1">
          <mxGeometry x="900" y="710" width="40" height="40" as="geometry" />
        </mxCell>
        <mxCell id="O2IIM5WadF5bXijUXbSv-28" style="edgeStyle=orthogonalEdgeStyle;curved=1;rounded=0;orthogonalLoop=1;jettySize=auto;html=1;entryX=0.5;entryY=0;entryDx=0;entryDy=0;startArrow=none;startFill=0;" parent="1" source="O2IIM5WadF5bXijUXbSv-13" target="O2IIM5WadF5bXijUXbSv-14" edge="1">
          <mxGeometry relative="1" as="geometry" />
        </mxCell>
        <mxCell id="O2IIM5WadF5bXijUXbSv-13" value="f" style="whiteSpace=wrap;html=1;rounded=0;shadow=0;strokeWidth=1;fontSize=24;align=right;fillColor=#FFFFFF;" parent="1" vertex="1">
          <mxGeometry x="740" y="679" width="40" height="40" as="geometry" />
        </mxCell>
        <mxCell id="O2IIM5WadF5bXijUXbSv-29" style="edgeStyle=orthogonalEdgeStyle;curved=1;rounded=0;orthogonalLoop=1;jettySize=auto;html=1;entryX=0.5;entryY=1;entryDx=0;entryDy=0;startArrow=none;startFill=0;" parent="1" source="O2IIM5WadF5bXijUXbSv-14" target="O2IIM5WadF5bXijUXbSv-6" edge="1">
          <mxGeometry relative="1" as="geometry" />
        </mxCell>
        <mxCell id="O2IIM5WadF5bXijUXbSv-14" value="g" style="whiteSpace=wrap;html=1;rounded=0;shadow=0;strokeWidth=1;fontSize=24;align=right;fillColor=#FFFFFF;" parent="1" vertex="1">
          <mxGeometry x="740" y="760" width="40" height="40" as="geometry" />
        </mxCell>
      </root>
    </mxGraphModel>
  </diagram>
</mxfile>
